<?xml version="1.0" encoding="utf-8"?>
<!-- Generator: Adobe Illustrator 14.0.0, SVG Export Plug-In . SVG Version: 6.00 Build 43363)  -->
<!DOCTYPE svg PUBLIC "-//W3C//DTD SVG 1.1//EN" "http://www.w3.org/Graphics/SVG/1.1/DTD/svg11.dtd">
<svg version="1.1" xmlns="http://www.w3.org/2000/svg" xmlns:xlink="http://www.w3.org/1999/xlink" x="0px" y="0px" width="2272px"
	 height="1872px" viewBox="0 0 2272 1872" enable-background="new 0 0 2272 1872" xml:space="preserve">
<g id="back">
	<rect x="0.031" y="-0.022" fill-rule="evenodd" clip-rule="evenodd" fill="#FFFFFF" width="2271.938" height="1872.022"/>
</g>
<g id="Flat_Green_Leaves_Clipart">
	<g>
		<g>
			<path fill="#10331D" d="M1385.245,925.765c-0.554,0-1.117-0.131-1.642-0.407c-1.016-0.535-102.162-54.478-153.299-142.646
				c-0.979-1.688-0.404-3.849,1.283-4.828c1.688-0.979,3.85-0.405,4.829,1.283c50.095,86.374,149.479,139.413,150.478,139.938
				c1.727,0.909,2.389,3.045,1.479,4.771C1387.741,925.079,1386.515,925.765,1385.245,925.765z"/>
		</g>
		<path fill="#42875E" d="M1243.957,798.602c9.399,16.934,40.006-50.152,14.129-143.057c-9.2-33.035,8.831-143.058-30.023-188.978
			c-38.855-45.919-88.308-44.153-102.437-79.476c-14.129-35.323-52.984-158.953-118.332-141.292
			c-65.347,17.661-52.984,171.316-37.089,227.833c15.896,56.516,45.92,141.291,45.92,141.291s28.258,104.203,90.073,143.058
			C1168.014,796.836,1198.037,796.836,1243.957,798.602z"/>
		<g>
			<path fill="#10331D" d="M1243.955,802.134c-0.824,0-1.653-0.288-2.324-0.874c-42.827-37.476-150.531-245.415-174.055-306.94
				c-22.772-59.559-61.553-214.318-61.943-215.875c-0.473-1.892,0.678-3.81,2.57-4.284c1.889-0.469,3.81,0.676,4.284,2.571
				c0.388,1.551,39.066,155.901,61.688,215.064c22.711,59.399,130.881,268.072,172.109,304.146c1.468,1.285,1.616,3.517,0.331,4.985
				C1245.917,801.726,1244.938,802.134,1243.955,802.134z"/>
		</g>
		<g>
			<path fill="#10331D" d="M1063.55,475.914c-1.08,0-2.144-0.491-2.837-1.424c-27.844-37.431-77.867-71.776-78.369-72.119
				c-1.613-1.1-2.027-3.297-0.928-4.909c1.101-1.611,3.296-2.027,4.909-0.926c2.09,1.426,51.509,35.364,80.056,73.737
				c1.164,1.565,0.84,3.778-0.727,4.942C1065.021,475.688,1064.283,475.914,1063.55,475.914z"/>
		</g>
		<g>
			<path fill="#10331D" d="M1050.656,434.657c-1.93,0-3.507-1.552-3.531-3.488c-0.792-62.046,19.691-105.594,20.564-107.418
				c0.84-1.759,2.948-2.501,4.709-1.662c1.759,0.841,2.504,2.95,1.664,4.709c-0.207,0.433-20.642,43.974-19.873,104.281
				c0.024,1.951-1.537,3.552-3.487,3.577C1050.687,434.657,1050.672,434.657,1050.656,434.657z"/>
		</g>
		<g>
			<path fill="#10331D" d="M1101.208,563.565c-1.83,0-3.377-1.41-3.519-3.264c-5.053-66.375,41.168-112.021,43.138-113.931
				c1.401-1.358,3.634-1.324,4.992,0.075c1.357,1.399,1.325,3.635-0.072,4.994c-0.459,0.447-45.811,45.33-41.014,108.326
				c0.148,1.945-1.309,3.642-3.254,3.79C1101.39,563.562,1101.298,563.565,1101.208,563.565z"/>
		</g>
		<g>
			<path fill="#10331D" d="M1132.69,625.458c-0.881,0-1.763-0.328-2.447-0.986c-42.965-41.308-114.313-60.696-115.029-60.886
				c-1.885-0.504-3.005-2.439-2.503-4.324c0.504-1.883,2.432-3.005,4.324-2.502c2.993,0.798,73.802,20.027,118.102,62.62
				c1.407,1.352,1.451,3.588,0.099,4.995C1134.543,625.095,1133.616,625.458,1132.69,625.458z"/>
		</g>
		<g>
			<path fill="#10331D" d="M1178.345,707.953c-1.775,0-3.305-1.336-3.505-3.143c-7.356-66.184,25.682-134.486,27.091-137.362
				c0.86-1.752,2.977-2.472,4.726-1.617c1.752,0.859,2.477,2.975,1.618,4.727c-0.337,0.687-33.538,69.37-26.415,133.472
				c0.216,1.939-1.182,3.685-3.12,3.9C1178.606,707.945,1178.476,707.953,1178.345,707.953z"/>
		</g>
		<g>
			<path fill="#10331D" d="M1200.611,744.602c-0.723,0-1.453-0.221-2.08-0.68c-50.873-37.155-109.905-45.941-110.495-46.025
				c-1.932-0.276-3.272-2.065-2.996-3.997c0.276-1.933,2.079-3.27,3.997-2.997c2.482,0.355,61.377,9.129,113.661,47.314
				c1.574,1.15,1.919,3.36,0.769,4.936C1202.775,744.1,1201.701,744.602,1200.611,744.602z"/>
		</g>
	</g>
	<g>
		<g>
			<path fill="#10331D" d="M333.796,384.579c-0.412,0-0.831-0.072-1.24-0.226c-23.238-8.713-84.813-26.331-85.432-26.508
				c-1.875-0.536-2.961-2.49-2.425-4.366c0.537-1.875,2.489-2.965,4.367-2.426c2.539,0.725,62.467,17.872,85.97,26.686
				c1.827,0.685,2.752,2.721,2.068,4.547C336.572,383.704,335.226,384.579,333.796,384.579z"/>
		</g>
		<path fill="#798539" d="M295.379,369.225c0,0,23.642,26.597,29.553,94.567c5.91,67.97,79.791,198,186.179,212.776
			c106.388,14.776,186.179,14.776,239.374-14.776s94.567,0,94.567,0S788.902,502.21,741.619,428.33
			C698.578,361.078,570.215,180.09,295.379,369.225z"/>
		<path fill="#10331D" d="M768.277,596.218c5.579-2.975,21.667-10.178,47.302-10.546c0.222-0.003,0.43-0.058,0.625-0.135
			c-0.446-1.12-0.895-2.243-1.349-3.375c-28.931,0.55-45.771,9.405-49.813,11.807c-11.1-7.696-22.602-15.293-34.402-22.765
			c8.292-6.179,42.086-30.012,67.479-28.154c0.196,0.017,0.384-0.021,0.568-0.07c-0.497-1.167-0.993-2.333-1.493-3.501
			c-28.027-1.266-63.561,24.954-69.754,29.708c-11.898-7.479-24.078-14.829-36.425-22.026c11.743-8.081,68.136-45.808,90.992-41.229
			c0.116,0.023,0.226-0.001,0.34-0.001c-0.575-1.253-1.151-2.501-1.729-3.749c-26.76-2.671-85.082,37.479-92.978,43.016
			c-12.443-7.208-25.044-14.255-37.682-21.12c13.181-9.082,81.075-54.265,117.304-47.285c0.4,0.078,0.778-0.011,1.113-0.178
			c-0.579-1.165-1.159-2.325-1.739-3.477c-39.992-6.374-111.219,42.745-120.161,49.052c-15.378-8.309-30.794-16.34-46.036-24.05
			c14.925-10.85,99.778-70.721,144.135-62.846c0.445,0.076,0.868-0.033,1.222-0.249c-0.71-1.17-1.419-2.325-2.125-3.46
			c-48.485-6.922-136.611,57.221-146.775,64.766c-17.1-8.608-33.956-16.803-50.264-24.518
			c17.095-12.743,124.257-90.39,173.353-72.474c0.579,0.208,1.181,0.071,1.643-0.271c-0.942-1.273-1.905-2.559-2.886-3.854
			c-54.149-16.064-164.039,65.998-175.728,74.892c-9.367-4.413-18.548-8.666-27.475-12.742c-7.689-3.51-15.304-6.941-22.827-10.293
			c17.658-14.14,128.597-100.192,194.737-85.923c0.603,0.128,1.18-0.09,1.59-0.493c-1.134-1.154-2.281-2.306-3.446-3.455
			c-70.865-12.504-183.763,77.82-196.515,88.255c-21.841-9.695-42.845-18.691-62.437-26.866
			c15.212-14.428,118.933-108.866,213.126-96.156c0.717,0.092,1.368-0.249,1.722-0.81c-1.642-1.055-3.3-2.096-4.981-3.12
			c-52.842-5.571-107.565,21.047-144.526,44.707c-36.992,23.677-63.908,49.069-68.904,53.896
			c-23.872-9.927-45.555-18.602-63.983-25.802c13.812-12.983,98.947-89.428,199.319-100.711c0.793-0.089,1.377-0.697,1.514-1.444
			c-2.621-0.477-5.272-0.91-7.954-1.298c-102.26,14.172-187.366,93.271-196.517,102.034c-31.703-12.34-53.078-20.053-58.27-21.91
			c-0.604,0.413-1.203,0.814-1.809,1.231c0,0,0.749,0.849,1.997,2.591c6.953,2.504,27.437,9.974,56.891,21.47
			c0.98,8.351,6.963,62.323,0.001,78.182c-7.193,16.389-4.814,54.755-1.139,76.174c1.172,2.188,2.378,4.378,3.617,6.566
			c0.651-0.371,1.031-1.111,0.867-1.883c-3.993-18.713-7.549-62.489-0.108-79.438c6.997-15.942,1.958-65.282,0.491-78.144
			c18.346,7.188,39.933,15.848,63.726,25.765c-0.013,7.589-0.399,46.638-6.791,69.404c-1.949,6.945-5.598,12.031-9.824,17.919
			c-10.648,14.838-23.845,33.281-16.174,93.089c1.065,1.279,2.142,2.549,3.23,3.812c0.438-0.377,0.704-0.938,0.62-1.553
			c-8.25-60.618,4.749-78.732,15.193-93.288c4.236-5.905,8.237-11.481,10.355-19.026c6.255-22.284,6.875-58.527,6.92-68.883
			c19.506,8.158,40.434,17.138,62.239,26.829c0.551,7.388,3.563,55.924-10.839,71.726c-1.282,1.407-2.617,2.797-3.979,4.216
			c-16.004,16.669-35.897,37.407-19.862,131.299c1.165,0.669,2.335,1.326,3.513,1.969c0.183-0.337,0.283-0.723,0.212-1.131
			c-16.187-93.372,3.149-113.51,18.684-129.691c1.385-1.442,2.741-2.854,4.043-4.283c14.595-16.015,12.692-60.517,11.891-72.474
			c16.511,7.366,33.5,15.131,50.732,23.248c2.17,6.535,14.802,47.221-0.046,66.406c-16.435,21.233-23.067,75.742-3.946,138.842
			c0.231,0.762,0.932,1.255,1.69,1.255c0.169,0,0.341-0.025,0.512-0.077c0.933-0.283,1.461-1.268,1.178-2.202
			c-18.574-61.295-12.131-115.641,3.36-135.656c14.472-18.698,5.376-54.29,1.63-66.501c16.381,7.754,32.962,15.817,49.542,24.154
			c2.096,5.509,13.387,37.159,6.995,63.258c-7.937,32.408-9.524,64.298,6.994,122.735c1.224,0.043,2.44,0.081,3.653,0.116
			c-0.011-0.077,0.004-0.152-0.018-0.229c-16.566-58.238-15.036-89.775-7.197-121.781c5.834-23.825-2.13-51.148-5.813-61.77
			c15.022,7.599,30.025,15.417,44.865,23.422c1.445,4.636,7.92,27.851,3.18,57.969c-5.042,32.054,8.566,91.572,10.967,101.664
			c1.198-0.082,2.383-0.175,3.568-0.268c-1.847-7.778-16.023-69.197-11.044-100.847c4.167-26.488,0.005-47.419-2.309-56.156
			c12.416,6.744,24.705,13.616,36.778,20.602c1.894,5.762,13.094,41.2,8.515,59.938c-6.511,26.657,7.996,68.67,8.617,70.446
			c0.01,0.029,0.031,0.05,0.042,0.079c1.125-0.255,2.246-0.514,3.356-0.784c-0.011-0.154-0.01-0.308-0.063-0.461
			c-0.15-0.425-14.786-42.791-8.52-68.441c4.231-17.322-3.883-46.769-7.392-58.128c11.984,6.994,23.738,14.098,35.183,21.292
			c1.258,4.527,7.282,27.225,4.701,37.803c-3.092,12.681,4.468,37.479,16.193,53.237c1.042-0.543,2.086-1.083,3.109-1.647
			c-0.041-0.074-0.055-0.156-0.107-0.225c-11.097-14.772-18.61-38.855-15.762-50.528c2.356-9.661-1.593-27.479-3.736-35.862
			c11.323,7.191,22.325,14.471,32.917,21.82c1.019,5.731,3.076,18.892,2.38,22.618c-2.621,14.031,0.34,22.386,6.752,32.693
			c1.156-0.338,2.304-0.654,3.442-0.942c-0.044-0.178-0.094-0.356-0.196-0.52c-6.256-9.963-8.983-17.429-6.525-30.583
			c0.724-3.875-0.791-14.367-1.785-20.424c27.153,19.078,51.485,38.608,71.498,58.282c3.878,1.993,6.005,3.504,6.005,3.504
			s-0.481-1.368-1.387-3.894C822.73,636.987,796.928,616.277,768.277,596.218z"/>
	</g>
	<g>
		<path fill="#086B57" d="M1802.55,1258.946c0,0-64.7-154.371-244.043-182.748c0,0-86.267-3.405-68.105-53.35
			c18.161-49.943,87.401-40.862,104.428-49.943s13.621-47.674,43.134-63.564c29.512-15.892,34.052,7.945,60.159-11.351
			s1.135-47.674,36.322-59.024c35.188-11.351,56.755,37.458,82.861,39.728c26.107,2.27,38.838-28.959,77.187-23.837
			c49.773,6.648,40.862,64.7,57.889,62.43s22.135-33.641,66.971-21.566c24.212,6.52,15.891,51.079,34.052,51.079
			c18.162,0,45.403-17.027,57.89,11.351c12.486,28.377-7.771,27.963-36.322,48.809c-30.687,22.403-120.217,73.057-179.809,141.605
			C1855.733,1193.919,1802.55,1258.946,1802.55,1258.946z"/>
		<g>
			<path fill="#084436" d="M1711.743,1648.725c-0.469,0-0.945-0.075-1.414-0.234c-2.312-0.781-3.55-3.287-2.769-5.598
				c0.977-2.887,97.671-290.773,95.965-465.062c-1.479-151.327-27.732-277.108-27.998-278.36c-0.503-2.386,1.021-4.729,3.407-5.234
				c2.383-0.505,4.729,1.02,5.234,3.405c0.266,1.261,26.697,127.854,28.188,280.102c1.722,175.789-95.449,465.077-96.431,467.979
				C1715.303,1647.563,1713.585,1648.725,1711.743,1648.725z"/>
		</g>
		<g>
			<path fill="#084436" d="M1807.353,1212.322c-1.934,0-3.708-1.278-4.251-3.231c-18.842-67.61-225.125-167.073-227.207-168.07
				c-2.198-1.054-3.128-3.69-2.074-5.89s3.688-3.125,5.89-2.075c8.646,4.14,211.989,102.218,231.897,173.665
				c0.656,2.35-0.719,4.784-3.068,5.438C1808.143,1212.27,1807.744,1212.322,1807.353,1212.322z"/>
		</g>
		<g>
			<path fill="#084436" d="M1807.35,1152.979c-2.089,0-3.944-1.488-4.338-3.616c-11.177-60.675-177.647-166.556-179.327-167.618
				c-2.062-1.304-2.675-4.03-1.373-6.091c1.302-2.063,4.034-2.676,6.092-1.372c6.994,4.422,171.425,109.046,183.294,173.481
				c0.441,2.397-1.145,4.7-3.542,5.142C1807.884,1152.955,1807.615,1152.979,1807.35,1152.979z"/>
		</g>
		<g>
			<path fill="#084436" d="M1801.861,1067.705c-1.93,0-3.703-1.275-4.25-3.224c-12.629-45.02-113.635-122.477-114.654-123.253
				c-1.938-1.479-2.312-4.25-0.831-6.189c1.476-1.938,4.246-2.311,6.188-0.833c4.255,3.247,104.381,80.055,117.8,127.889
				c0.659,2.349-0.71,4.785-3.06,5.444C1802.656,1067.651,1802.254,1067.705,1801.861,1067.705z"/>
		</g>
		<g>
			<path fill="#084436" d="M1798.803,1030.139c-0.023,0-0.048,0-0.072-0.001c-2.438-0.038-4.384-2.048-4.345-4.485
				c0.812-50.027,84.399-131.373,87.957-134.811c1.753-1.691,4.545-1.648,6.244,0.107c1.693,1.753,1.647,4.548-0.107,6.243
				c-0.845,0.817-84.513,82.221-85.263,128.604C1803.177,1028.209,1801.207,1030.139,1798.803,1030.139z"/>
		</g>
		<g>
			<path fill="#084436" d="M1807.359,1113.531c-0.214,0-0.433-0.017-0.65-0.048c-2.412-0.357-4.078-2.603-3.722-5.015
				c5.459-36.92,152.006-160.205,168.698-174.141c1.869-1.562,4.654-1.313,6.219,0.56c1.563,1.872,1.313,4.656-0.559,6.219
				c-44.642,37.271-161.419,140.227-165.624,168.654C1811.397,1111.954,1809.512,1113.531,1807.359,1113.531z"/>
		</g>
		<g>
			<path fill="#084436" d="M1807.969,1178.231c-0.264,0-0.531-0.023-0.799-0.073c-2.399-0.438-3.989-2.737-3.55-5.137
				c9.021-49.336,176.938-179.911,184.081-185.445c1.932-1.496,4.701-1.14,6.195,0.786c1.493,1.928,1.142,4.701-0.786,6.194
				c-59.591,46.168-174.067,143.214-180.804,180.053C1811.916,1176.74,1810.059,1178.231,1807.969,1178.231z"/>
		</g>
	</g>
	<g>
		<g>
			<g>
				<path fill="#084436" d="M1373.871,491.53c-0.08,0-0.161-0.01-0.24-0.034c-0.469-0.133-0.743-0.621-0.61-1.09l6.178-21.696
					l4.354-6.904l7.494-13.3c0.239-0.427,0.783-0.574,1.202-0.335c0.426,0.24,0.576,0.778,0.336,1.203l-7.517,13.337l-4.307,6.833
					l-6.04,21.344C1374.61,491.276,1374.257,491.53,1373.871,491.53z"/>
			</g>
			<g>
				<path fill="#084436" d="M1470.803,550.937c-0.42,0-0.795-0.303-0.869-0.733l-4.957-28.738l9.954-18.865
					c0.228-0.433,0.766-0.593,1.193-0.369c0.432,0.228,0.597,0.762,0.369,1.194l-9.674,18.332l4.856,28.146
					c0.083,0.48-0.239,0.937-0.721,1.02C1470.905,550.933,1470.854,550.937,1470.803,550.937z"/>
			</g>
			<g>
				<path fill="#084436" d="M1560.922,591.188c-0.488,0-0.884-0.395-0.884-0.883v-33.396l16.487-12.886
					c0.379-0.297,0.938-0.233,1.238,0.152c0.302,0.385,0.232,0.94-0.152,1.24l-15.807,12.354v32.536
					C1561.805,590.793,1561.409,591.188,1560.922,591.188z"/>
			</g>
			<g>
				<path fill="#084436" d="M1661.693,609.86c-0.448,0-0.833-0.341-0.878-0.797l-2.447-24.977l18.908-21.521
					c0.326-0.366,0.882-0.402,1.247-0.08c0.365,0.321,0.402,0.879,0.081,1.246l-18.405,20.944l2.375,24.215
					c0.047,0.485-0.309,0.917-0.793,0.965C1661.752,609.858,1661.723,609.86,1661.693,609.86z"/>
			</g>
			<g>
				<path fill="#084436" d="M1754.806,641.625c-0.488,0-0.883-0.395-0.883-0.883v-27.248l14.774-27.845
					c0.229-0.431,0.76-0.593,1.193-0.366c0.431,0.229,0.595,0.763,0.365,1.194l-14.567,27.456v26.809
					C1755.688,641.229,1755.294,641.625,1754.806,641.625z"/>
			</g>
			<g>
				<path fill="#084436" d="M1848.231,665.994c-0.412,0-0.781-0.291-0.864-0.711l-5.062-25.43l25.896-21.972
					c0.372-0.314,0.93-0.269,1.243,0.103c0.315,0.372,0.271,0.929-0.102,1.244l-25.103,21.299l4.859,24.411
					c0.095,0.479-0.216,0.943-0.693,1.038C1848.348,665.988,1848.29,665.994,1848.231,665.994z"/>
			</g>
		</g>
		<g>
			<path fill="#084436" d="M1915.398,652.995c-45.148,0-140.534-25.596-163.531-37.798c-12.768-6.775-48.877-16.411-94.591-28.61
				c-37.955-10.128-85.188-22.734-133.844-37.638c-106.959-32.761-269.931-173.215-271.565-174.63
				c-1.105-0.958-1.225-2.631-0.268-3.736c0.957-1.106,2.627-1.228,3.738-0.269c1.624,1.408,163.758,141.135,269.646,173.569
				c48.563,14.875,95.744,27.466,133.658,37.583c47.841,12.768,82.408,21.992,95.708,29.049
				c23.62,12.534,124.851,39.445,166.401,37.037c1.479-0.078,2.715,1.033,2.796,2.493c0.085,1.461-1.031,2.713-2.492,2.797
				C1919.276,652.946,1917.384,652.995,1915.398,652.995z"/>
		</g>
		<g>
			<path fill="#4E7D0B" d="M1384.298,462.276c0,0-15.761-32.007,2.425-64.257c18.187-32.25,54.558-27.885,64.984-38.797
				C1451.707,359.223,1458.254,470.763,1384.298,462.276z"/>
		</g>
		<g>
			<path fill="#4E7D0B" d="M1470.863,511.333c0,0-22.309-50.27,27.643-80.337s77.108-23.278,77.108-23.278
				s2.425,46.556-10.669,68.379C1551.852,497.921,1522.754,523.776,1470.863,511.333z"/>
		</g>
		<g>
			<path fill="#4E7D0B" d="M1568.703,551.63c0,0-26.551-33.099,12.003-82.564c38.555-49.466,88.384-50.193,88.384-50.193
				s6.547,42.191-14.912,88.02C1632.718,552.721,1608.35,553.085,1568.703,551.63z"/>
		</g>
		<g>
			<path fill="#4E7D0B" d="M1741.47,425.905c0,0-47.041,11.881-64.499,45.101c-17.459,33.22-24.248,62.56-9.941,103.296
				c0,0,65.227-13.579,76.381-54.558S1754.564,464.944,1741.47,425.905z"/>
		</g>
		<g>
			<path fill="#4E7D0B" d="M1814.214,458.518c0,0-48.011,21.976-56.74,52.815c-8.729,30.84-12.73,61.756,2.91,91.581
				c0,0,47.646-2.182,60.014-44.01C1832.764,517.077,1830.218,479.978,1814.214,458.518z"/>
		</g>
		<g>
			<path fill="#4E7D0B" d="M1850.101,632.255c0,0-13.094-49.466,30.067-82.443c43.162-32.977,59.65-32.007,59.65-32.007
				s4.364,58.68-18.913,80.503C1897.627,620.131,1893.746,633.401,1850.101,632.255z"/>
		</g>
		<g>
			<path fill="#4E7D0B" d="M1374.478,485.444c0,0-44.374-13.469-61.469,48.728c0,0-5.092,30.552,0,51.284
				c0,0,37.881-0.321,64.951-33.44C1405.03,518.896,1374.478,485.444,1374.478,485.444z"/>
		</g>
		<g>
			<path fill="#4E7D0B" d="M1469.408,534.835c0,0-37.827,9.885-46.556,53.167c-11.539,57.211,11.639,93.476,50.92,108.025
				c0,0,33.463-8.002,32.008-84.383C1505.78,611.644,1509.523,568.661,1469.408,534.835z"/>
		</g>
		<g>
			<path fill="#4E7D0B" d="M1559.791,574.302c0,0-41.887,18.186-36.067,71.046s57.71,88.263,57.71,88.263
				s34.462-15.519,33.477-73.714C1613.926,601.702,1594.889,585.699,1559.791,574.302z"/>
		</g>
		<g>
			<path fill="#4E7D0B" d="M1659.284,597.337c0,0-35.174,20.369-24.505,81.958c10.669,61.589,62.56,80.018,62.56,80.018
				s35.402-21.823,28.612-86.323C1719.162,608.492,1659.284,597.337,1659.284,597.337z"/>
		</g>
		<g>
			<path fill="#4E7D0B" d="M1754.079,623.041c0,0-16.144,15.322-18.629,52.543c-1.985,29.724,7.171,59.438,26.024,82.503
				c4.273,5.229,8.851,9.714,13.458,12.381c0,0,32.492-27.158,25.702-79.533C1793.846,638.559,1754.079,623.041,1754.079,623.041z"
				/>
		</g>
		<g>
			<path fill="#4E7D0B" d="M1845.13,650.351c0,0-32.371,11.486-21.823,64.953s41.464,69.834,41.464,69.834
				s24.733-41.828,17.822-83.292C1875.683,660.382,1845.13,650.351,1845.13,650.351z"/>
		</g>
		<g>
			<path fill="#4E7D0B" d="M1914.601,650.351c0,0,10.548-57.499,75.29-53.013c64.741,4.486,81.473,38.312,81.473,38.312
				s-49.103,41.828-82.2,45.101C1956.064,684.024,1914.601,650.351,1914.601,650.351z"/>
		</g>
		<g>
			<path fill="#385609" d="M1337.379,555.181c-0.227,0-0.452-0.086-0.625-0.259c-0.345-0.345-0.345-0.904,0-1.249
				c12.829-12.829,36.917-66.723,37.158-67.266c0.198-0.446,0.727-0.649,1.166-0.447c0.446,0.198,0.646,0.72,0.448,1.166
				c-0.993,2.229-24.464,54.736-37.523,67.796C1337.83,555.095,1337.604,555.181,1337.379,555.181z"/>
		</g>
		<g>
			<path fill="#385609" d="M1385.119,461.702c-0.201,0-0.403-0.068-0.568-0.208c-0.373-0.315-0.421-0.872-0.105-1.245
				c0.365-0.434,36.763-43.674,45.338-66.78c0.171-0.458,0.677-0.692,1.135-0.521c0.458,0.17,0.69,0.678,0.521,1.135
				c-8.683,23.395-45.276,66.869-45.646,67.306C1385.619,461.596,1385.369,461.702,1385.119,461.702z"/>
		</g>
		<g>
			<path fill="#385609" d="M1474.501,508.867c-0.143,0-0.286-0.034-0.419-0.106c-0.43-0.231-0.59-0.767-0.358-1.196
				c0.376-0.696,37.998-69.694,79.349-81.118c0.469-0.127,0.955,0.146,1.086,0.616c0.13,0.47-0.146,0.956-0.617,1.086
				c-40.623,11.224-77.891,79.565-78.262,80.254C1475.119,508.699,1474.815,508.867,1474.501,508.867z"/>
		</g>
		<g>
			<path fill="#385609" d="M1474.503,654.839c-0.052,0-0.102-0.004-0.153-0.013c-0.481-0.084-0.803-0.542-0.718-1.022
				c6.794-38.934-5.695-113.523-5.822-114.272c-0.081-0.48,0.243-0.937,0.723-1.019c0.472-0.07,0.937,0.243,1.019,0.724
				c0.128,0.752,12.667,75.638,5.819,114.871C1475.296,654.538,1474.924,654.839,1474.503,654.839z"/>
		</g>
		<g>
			<path fill="#385609" d="M1579.252,694.849c-0.01,0-0.021,0-0.031-0.001c-0.488-0.017-0.869-0.427-0.852-0.914
				c1.792-49.815-19.203-113.983-19.416-114.626c-0.153-0.463,0.099-0.962,0.561-1.115c0.47-0.159,0.963,0.099,1.116,0.562
				c0.214,0.645,21.308,65.108,19.505,115.244C1580.118,694.474,1579.727,694.849,1579.252,694.849z"/>
		</g>
		<g>
			<path fill="#385609" d="M1572.705,549.361c-0.219,0-0.438-0.081-0.609-0.243c-0.354-0.336-0.367-0.895-0.03-1.249
				c0.599-0.629,59.971-63.299,69.621-99.159c0.126-0.471,0.606-0.75,1.081-0.624c0.471,0.127,0.75,0.611,0.623,1.083
				c-9.766,36.291-69.443,99.285-70.046,99.917C1573.171,549.269,1572.938,549.361,1572.705,549.361z"/>
		</g>
		<g>
			<path fill="#385609" d="M1674.106,568.396c-0.054,0-0.107-0.004-0.162-0.015c-0.479-0.088-0.797-0.548-0.709-1.029
				c0.142-0.765,14.545-76.995,52.929-119.008c0.33-0.358,0.889-0.385,1.247-0.056c0.36,0.329,0.387,0.887,0.058,1.248
				c-38.049,41.644-52.355,117.377-52.495,118.138C1674.895,568.099,1674.523,568.396,1674.106,568.396z"/>
		</g>
		<g>
			<path fill="#385609" d="M1763.495,598.22c-0.276,0-0.551-0.13-0.723-0.374c-0.279-0.399-0.185-0.95,0.214-1.231
				c37.242-26.24,42.298-97.25,42.344-97.964c0.033-0.487,0.52-0.849,0.938-0.823c0.488,0.032,0.855,0.452,0.824,0.939
				c-0.046,0.723-5.155,72.564-43.089,99.292C1763.849,598.167,1763.671,598.22,1763.495,598.22z"/>
		</g>
		<g>
			<path fill="#385609" d="M1692.004,718.627c-0.488,0-0.883-0.395-0.883-0.883c0-33.142-30.539-113.705-30.846-114.516
				c-0.174-0.456,0.056-0.966,0.511-1.139c0.454-0.172,0.966,0.054,1.139,0.511c0.31,0.813,30.962,81.678,30.962,115.144
				C1692.887,718.232,1692.492,718.627,1692.004,718.627z"/>
		</g>
		<g>
			<path fill="#385609" d="M1772.752,734.495c-0.021,0-0.043-0.001-0.064-0.002c-0.486-0.035-0.852-0.456-0.819-0.942
				c2.315-33.109-14.346-90.892-14.515-91.471c-0.137-0.468,0.134-0.958,0.602-1.095c0.475-0.14,0.959,0.133,1.096,0.602
				c0.168,0.583,16.916,58.668,14.58,92.087C1773.599,734.138,1773.21,734.495,1772.752,734.495z"/>
		</g>
		<g>
			<path fill="#385609" d="M1860.771,740.678c-0.016,0-0.032-0.001-0.05-0.002c-0.486-0.027-0.859-0.445-0.831-0.931
				c1.428-25.026-13.311-78.641-13.458-79.18c-0.132-0.47,0.145-0.957,0.613-1.087c0.477-0.125,0.959,0.147,1.087,0.616
				c0.15,0.542,14.966,54.437,13.521,79.75C1861.626,740.314,1861.236,740.678,1860.771,740.678z"/>
		</g>
		<g>
			<path fill="#385609" d="M1856.022,630.255c-0.236,0-0.473-0.095-0.646-0.282c-0.331-0.357-0.313-0.916,0.045-1.248
				c0.55-0.511,55.116-51.528,64.635-84.252c0.136-0.469,0.619-0.738,1.095-0.601c0.47,0.136,0.738,0.626,0.603,1.094
				c-9.655,33.194-62.869,82.951-65.128,85.053C1856.453,630.177,1856.238,630.255,1856.022,630.255z"/>
		</g>
		<g>
			<path fill="#385609" d="M1920.904,646.837c-0.359,0-0.697-0.221-0.828-0.578c-0.169-0.458,0.065-0.965,0.522-1.134
				c0.706-0.258,70.954-25.758,125.858-13.664c0.477,0.105,0.778,0.576,0.673,1.052c-0.105,0.475-0.565,0.78-1.052,0.672
				c-54.402-11.978-124.172,13.341-124.869,13.597C1921.109,646.82,1921.006,646.837,1920.904,646.837z"/>
		</g>
	</g>
	<g>
		<g>
			<path fill="#10331D" d="M825.596,1669.916c-1.196-0.68-1.933-2.028-1.764-3.48l15.723-135.301
				c0.226-1.937,1.979-3.326,3.917-3.101c1.94,0.228,3.325,1.979,3.101,3.917l-15.724,135.301c-0.225,1.937-1.979,3.326-3.917,3.101
				C826.447,1670.295,825.996,1670.144,825.596,1669.916z"/>
		</g>
		<g>
			<path fill="#798539" d="M843.063,1531.543c0,0,162.839-29.127,209.987-104.867c0,0-67.406-13.701-96.013-16.288
				c0,0,94.637-67.889,134.314-123.267c0,0-73.934-31.082-97.938-20.117c0,0,86.676-68.313,115.854-136.492
				c0,0-80.631,4.759-104.614,25.307c0,0,33.595-71.138,44.427-104.629c0,0-54.515,14.132-69.666,28.763
				c0,0,31.48-61.403,34.632-100.626c0,0-33.963,8.04-44.851,17.574c0,0,30.495-72.899,38.145-111.617
				c0,0-34.833,14.381-50.642,31.373c0,0,8.631-92.162-3.286-113.29c0,0-25.548,44.951-31.175,65.677
				c0,0-23.206-89.065-68.261-127.66c0,0,2.922,115.134-7.653,163.809c0,0-34.449-26.586-49.448-33.572
				c0,0-4.157,66.85,5.573,90.323c0,0-45.665-23.39-57.783-28.227c0,0,7.814,55.709,31.062,91.48c0,0-41.773-14.001-54.932-14.302
				c0,0,13.323,94.728,49.896,131.407c0,0-61.792-16.663-72.299-18.021c0,0,31.901,71.963,79.353,103.032
				c0,0-75.057-14.973-85.502-13.732c0,0,41.594,103.618,92.057,145.628c0,0-63.802-1.399-84.747,2.077
				c0,0,56.211,65.271,93.077,85.198c0,0-29.715-11.762-54.376-13.474C738.253,1433.011,771.482,1497.525,843.063,1531.543z"/>
		</g>
		<g>
			<path fill="#10331D" d="M841.318,1534.615c-1.26-0.716-1.997-2.168-1.734-3.677c29.337-168.644,47.815-634.813,47.999-639.502
				c0.076-1.949,1.718-3.468,3.667-3.392c1.949,0.073,3.468,1.716,3.391,3.667c-0.183,4.694-18.68,471.334-48.097,640.436
				c-0.335,1.922-2.163,3.209-4.085,2.875C842.046,1534.951,841.662,1534.811,841.318,1534.615z"/>
		</g>
		<g>
			<path fill="#10331D" d="M880.377,1062.498l0.377-7.064c0.688-12.902-35.814-72.781-49.938-94.766
				c-0.791-1.23-0.434-2.87,0.797-3.661c1.229-0.789,2.866-0.431,3.661,0.798c4.814,7.494,43.64,68.367,49.925,92.05
				c13.591-14.334,60.665-64.953,75.563-93.736c0.673-1.299,2.271-1.808,3.571-1.135c1.262,0.683,1.807,2.271,1.134,3.571
				c-17.752,34.297-77.626,96.244-80.167,98.863L880.377,1062.498z"/>
		</g>
		<g>
			<path fill="#10331D" d="M874.427,1164.229c-34.837-19.799-80.408-97.7-82.368-101.071c-0.735-1.265-0.306-2.887,0.958-3.622
				c1.266-0.736,2.884-0.307,3.623,0.958c0.472,0.813,46.806,80.035,80.368,99.11c0.059,0.033,0.115,0.063,0.173,0.098
				c8.894-9.321,58.444-62.101,82.669-105.756c0.71-1.278,2.323-1.74,3.602-1.03c0.007,0.004,0.016,0.009,0.024,0.014
				c1.261,0.717,1.712,2.317,1.007,3.589c-26.886,48.447-84.305,107.721-84.882,108.313l-1.358,1.396l-1.738-0.881
				C875.818,1165,875.124,1164.626,874.427,1164.229z"/>
		</g>
		<g>
			<path fill="#10331D" d="M863.213,1363.03l-1.673-1.209c-31.9-23.044-73.075-80.535-74.813-82.971
				c-0.849-1.192-0.572-2.847,0.619-3.696s2.846-0.571,3.696,0.619c0.412,0.579,40.925,57.148,71.922,80.514
				c10.043-8.742,65.368-58.32,93.417-113.073c0.667-1.302,2.264-1.816,3.566-1.149c1.283,0.63,1.816,2.264,1.149,3.565
				c-31.264,61.028-95.654,115.528-96.301,116.071L863.213,1363.03z"/>
		</g>
		<g>
			<path fill="#10331D" d="M853.378,1460.125l-1.341-0.824c-30.555-18.774-56.222-50.298-57.3-51.63
				c-0.921-1.139-0.743-2.806,0.394-3.727c1.136-0.92,2.806-0.742,3.726,0.394c0.254,0.315,25.411,31.201,54.602,49.607
				c8.887-5.33,59.156-36.53,85.299-75.344c0.818-1.214,2.465-1.529,3.677-0.717c1.213,0.817,1.535,2.463,0.717,3.677
				c-29.298,43.496-87.821,77.441-88.409,77.779L853.378,1460.125z"/>
		</g>
		<g>
			<path fill="#10331D" d="M859.905,1255.496c-40.605-23.078-80.704-68.029-82.526-70.084c-0.97-1.095-0.869-2.77,0.225-3.739
				c1.096-0.972,2.772-0.868,3.74,0.225c0.471,0.532,47.188,52.901,89.632,73.448c7.95-4.197,56.636-31.618,91.809-90.4
				c0.74-1.238,2.333-1.653,3.582-0.943c0.017,0.01,0.034,0.02,0.052,0.03c1.255,0.751,1.664,2.378,0.913,3.634
				c-39.063,65.286-94.6,92.75-95.156,93.021l-1.14,0.553l-1.146-0.54C866.574,1259.137,863.235,1257.389,859.905,1255.496z"/>
		</g>
	</g>
	<g>
		<g>
			<path fill="#93C758" d="M320.496,748.636c0,0,11.307,89.233-30.388,135.165s-53.864,100.88,11.52,183.748
				c0,0,9.753,19.146-17.547,62.506s-42.66,75.789,21.706,121.457c64.365,45.669,29.51,47.5,23.389,87.074
				c-6.121,39.574-23.2,85.505,120.984,135.6c0,0,115.021-70.03,74.903-153.016c-40.117-82.984-45.898-59.963-0.017-123.135
				c45.882-63.172-11.351-88.126-64.059-136.977c-52.708-48.852-1.156-74.144,6.03-113.908
				c7.187-39.765-74.046-55.025-93.768-100.197C356.245,808.007,320.496,748.636,320.496,748.636z"/>
		</g>
		<g>
			<path fill="#648C30" d="M464.72,1617.5c-0.122,0.021-0.248,0.037-0.375,0.048c-1.945,0.138-3.636-1.327-3.774-3.273
				c-2.362-33.102-4.362-63.641-6.296-93.175c-9.24-141.07-15.344-234.268-40.69-281.697
				c-31.576-59.087-54.864-172.588-55.154-220.271c-0.287-46.972-20.242-179.209-20.444-180.539
				c-0.292-1.93,1.075-3.743,2.963-4.022c1.93-0.292,3.73,1.035,4.022,2.963c0.825,5.452,20.232,134.072,20.522,181.555
				c0.287,46.979,23.223,158.791,54.322,216.984c26.065,48.775,32.209,142.577,41.509,284.565
				c1.933,29.524,3.933,60.053,6.293,93.134C467.747,1615.591,466.475,1617.187,464.72,1617.5z"/>
		</g>
		<g>
			<path fill="#648C30" d="M362.356,1017.416c-0.134,0.024-0.271,0.038-0.412,0.041c-13.604,0.299-20.803-9.307-28.425-19.476
				c-3.825-5.104-7.78-10.382-12.733-14.607c-14.282-12.184-41.9-19.696-42.178-19.77c-1.413-0.38-2.251-1.833-1.872-3.246
				c0.379-1.412,1.833-2.248,3.244-1.872c1.179,0.316,29.045,7.893,44.244,20.857c5.4,4.606,9.535,10.124,13.534,15.46
				c7.077,9.441,13.188,17.595,24.069,17.356c1.462-0.031,2.674,1.128,2.706,2.591
				C364.563,1016.074,363.618,1017.19,362.356,1017.416z"/>
		</g>
		<g>
			<path fill="#648C30" d="M365.813,1036.781c-0.327,0.059-0.671,0.056-1.015-0.018c-1.432-0.304-2.346-1.711-2.042-3.141
				c0.194-0.913,5.009-22.557,28.454-41.875c23.27-19.175,37.311-31.745,32.967-47.841c-0.381-1.413,0.455-2.866,1.867-3.248
				c1.381-0.387,2.866,0.453,3.248,1.867c5.455,20.211-12.271,34.817-34.713,53.311c-22.029,18.153-26.596,38.68-26.64,38.885
				C367.708,1035.809,366.842,1036.597,365.813,1036.781z"/>
		</g>
		<g>
			<path fill="#648C30" d="M406.395,1217.362c-0.745,0.133-1.541-0.052-2.166-0.574c-1.124-0.938-1.273-2.609-0.336-3.731
				c1.114-1.332,27.6-32.652,56.734-35.326c25.771-2.369,28.916-38.669,28.944-39.035c0.112-1.458,1.387-2.55,2.844-2.438
				c1.458,0.111,2.549,1.383,2.439,2.841c-0.032,0.41-3.48,41.133-33.744,43.909c-27.025,2.471-52.895,33.135-53.151,33.444
				C407.545,1216.95,406.986,1217.257,406.395,1217.362z"/>
		</g>
		<g>
			<path fill="#648C30" d="M376.354,1181.112c-37.818,6.759-65.841-15.504-66.158-15.761c-1.134-0.922-1.308-2.587-0.388-3.724
				c0.921-1.135,2.589-1.312,3.725-0.392c0.338,0.273,34.167,27.024,76.837,10.438c1.372-0.527,2.899,0.146,3.43,1.51
				c0.529,1.363-0.147,2.899-1.51,3.429C386.828,1178.734,381.5,1180.192,376.354,1181.112z"/>
		</g>
		<g>
			<path fill="#648C30" d="M446.458,1412.938c-0.613,0.109-1.266,0.006-1.84-0.344c-0.268-0.162-27.042-16.374-47.327-25.701
				c-22.552-10.368-34.331-33.447-35.73-50.502c-0.121-1.459,0.97-2.744,2.423-2.856c1.458-0.12,2.737,0.965,2.857,2.424
				c1.319,16.063,12.961,37.063,32.663,46.121c20.564,9.455,47.592,25.821,47.863,25.986c1.25,0.758,1.649,2.388,0.89,3.638
				C447.847,1412.381,447.181,1412.809,446.458,1412.938z"/>
		</g>
		<g>
			<path fill="#648C30" d="M446.303,1359.867c-1.346,0.24-2.67-0.59-3.024-1.936c-0.372-1.414,0.473-2.861,1.887-3.235
				c0.338-0.09,34.034-9.335,49.977-43.474c0.619-1.322,2.194-1.896,3.521-1.279c1.326,0.62,1.898,2.196,1.28,3.523
				c-17.025,36.456-51.954,45.968-53.433,46.354C446.44,1359.839,446.372,1359.854,446.303,1359.867z"/>
		</g>
	</g>
	<g>
		<g>
			<path fill="#689133" d="M1513.77,1615.614c0,0-34.111-80.992-87.344-91.087c-52.531-9.961-94.573-28.342-93.621-117.735
				c0.017-1.544,0.222-3.082,0.368-4.619c0.257-2.696-1.762-11.697-26.201-36.979c-23.892-24.714-88.833-26.778-67.975-92.478
				c20.857-65.699,4.843-57.045-20.241-81.42c-25.085-24.373-53.577-74.794,3.779-149.783c0,0,104.41-21.563,120.088,57.4
				c15.679,78.964,36.844,58.153,63.187,82.77c52.092,48.677,29.417,119.882,30.167,144.566
				c1.907,62.738,29.75,54.683,55.677,78.629c25.928,23.946,4.803,113.09,14.813,154.96
				C1515.096,1595.938,1513.77,1615.614,1513.77,1615.614z"/>
		</g>
		<g>
			<path fill="#3F5916" d="M1157.304,933.929c1.389-0.705,3.115-0.261,3.981,1.075c15.756,24.311,30.42,46.648,44.603,68.253
				c68.2,103.893,113.257,172.528,120.738,220.244c8.927,56.934,51.747,146.96,76.259,179.869
				c24.773,33.26,78.896,133.149,81.188,137.385c0.81,1.498,0.253,3.37-1.246,4.181c-1.464,0.82-3.371,0.253-4.182-1.245
				c-0.559-1.034-56.202-103.732-80.709-136.634c-24.88-33.402-68.343-124.793-77.406-182.599
				c-7.275-46.401-52.041-114.594-119.802-217.815c-14.187-21.611-28.855-43.957-44.621-68.282c-0.928-1.43-0.519-3.34,0.91-4.268
				C1157.111,934.033,1157.207,933.979,1157.304,933.929z"/>
		</g>
		<g>
			<path fill="#3F5916" d="M1401.576,1406.187c0.999-0.507,2.245-0.226,2.921,0.712c0.747,1.037,0.513,2.483-0.523,3.23
				c-7.713,5.558-7.685,14.457-7.651,24.763c0.018,5.823,0.037,11.846-1.305,17.898c-3.778,17.034-19.224,36.975-19.88,37.814
				c-0.787,1.007-2.239,1.188-3.246,0.401c-1.009-0.786-1.188-2.24-0.402-3.247c0.154-0.198,15.46-19.964,19.01-35.971
				c1.23-5.55,1.212-11.311,1.194-16.881c-0.035-11.101-0.068-21.585,9.574-28.534
				C1401.367,1406.303,1401.47,1406.24,1401.576,1406.187z"/>
		</g>
		<g>
			<path fill="#3F5916" d="M1393.801,1390.867c0.813-0.413,1.83-0.32,2.563,0.313l0,0c0.139,0.12,14.229,12.036,39.032,13.103
				c25.374,1.091,45.417,1.95,52.245,18.912c0.477,1.185-0.096,2.524-1.282,3.01c-1.186,0.478-2.533-0.097-3.011-1.282
				c-5.438-13.508-21.84-14.887-48.15-16.016c-26.511-1.14-41.252-13.696-41.867-14.23c-0.965-0.838-1.066-2.3-0.229-3.264
				C1393.304,1391.181,1393.542,1390.998,1393.801,1390.867z"/>
		</g>
		<g>
			<path fill="#3F5916" d="M1327.11,1243.607c0.468-0.236,1.019-0.316,1.569-0.189c0.343,0.08,34.551,7.82,54.653-4.638
				c22.557-14.005,46.387,12.597,46.625,12.866c0.844,0.959,0.751,2.42-0.206,3.264c-0.955,0.851-2.42,0.754-3.266-0.203
				c-0.214-0.242-21.464-23.918-40.716-11.994c-21.727,13.468-56.662,5.557-58.14,5.213c-1.244-0.289-2.018-1.533-1.729-2.777
				C1326.063,1244.455,1326.521,1243.906,1327.11,1243.607z"/>
		</g>
		<g>
			<path fill="#3F5916" d="M1325.231,1284.686c4.073-2.066,8.552-3.852,13.48-5.246c1.229-0.348,2.507,0.367,2.856,1.597
				c0.346,1.229-0.366,2.514-1.598,2.856c-38.485,10.892-47.994,47.328-48.085,47.695c-0.31,1.238-1.563,1.994-2.804,1.686
				c-1.239-0.308-1.995-1.561-1.688-2.801C1287.479,1330.129,1295.311,1299.864,1325.231,1284.686z"/>
		</g>
		<g>
			<path fill="#3F5916" d="M1252.171,1086.166c0.571-0.289,1.262-0.342,1.904-0.086c1.188,0.473,1.767,1.819,1.293,3.005
				c-0.103,0.258-10.34,25.887-19.705,43.297c-8.972,16.679-6.044,37.445,1.486,49.338c0.684,1.081,0.362,2.511-0.718,3.193
				c-1.065,0.694-2.508,0.364-3.191-0.717c-7.996-12.628-11.923-34.914-1.652-54.008c9.238-17.172,19.38-42.561,19.481-42.814
				C1251.285,1086.828,1251.686,1086.412,1252.171,1086.166z"/>
		</g>
		<g>
			<path fill="#3F5916" d="M1279.979,1123.254c0.055-0.028,0.111-0.053,0.169-0.077c1.234-0.509,30.591-12.25,61.638,4.214
				c1.13,0.6,1.56,2,0.961,3.129c-0.596,1.129-2,1.557-3.128,0.961c-29.073-15.417-57.43-4.139-57.712-4.023
				c-1.183,0.482-2.533-0.082-3.018-1.264C1278.427,1125.069,1278.914,1123.794,1279.979,1123.254z"/>
		</g>
	</g>
</g>
</svg>
